<?xml version="1.0" encoding="utf-8"?>
<!-- Generator: Adobe Illustrator 26.0.1, SVG Export Plug-In . SVG Version: 6.00 Build 0)  -->
<svg version="1.1" id="katman_1" xmlns="http://www.w3.org/2000/svg" xmlns:xlink="http://www.w3.org/1999/xlink" x="0px" y="0px"
	 viewBox="0 0 360.5 94.7" style="enable-background:new 0 0 360.5 94.7;" xml:space="preserve">
<style type="text/css">
	.st0{fill:#E2E2E2;}
	.st1{fill:url(#SVGID_1_);}
	.st2{fill:#FFFFFF;}
	.st3{fill:#FF9700;}
	.st4{clip-path:url(#SVGID_00000173880322488600895410000007058420174289367188_);}
	.st5{fill:#2E4DA7;}
	.st6{clip-path:url(#SVGID_00000027584795861038778910000001806467062070732684_);}
	.st7{fill:#7737DA;}
	.st8{clip-path:url(#SVGID_00000178164804848800854990000017958648968455716762_);}
	.st9{fill:#F9C283;}
	.st10{fill:#EBACCD;}
	.st11{fill:#B3BBE0;}
	.st12{fill:url(#SVGID_00000125588496722639783610000004264446845725569703_);}
	.st13{clip-path:url(#SVGID_00000137832652908869763700000011743175891563891364_);}
	.st14{fill:#E02222;}
	.st15{clip-path:url(#SVGID_00000068650966272933558760000001241670827038032768_);}
	.st16{fill:#403366;}
	.st17{clip-path:url(#SVGID_00000018231119421448740610000016147241400729530303_);}
	.st18{fill:#2DC5B0;}
	.st19{fill:none;stroke:#FFFFFF;stroke-miterlimit:10;}
</style>
<g>
	<path class="st0" d="M302,71.9L164.4,82.4c-10.8,0.8-17.3-6.3-14.6-15.9l6.2-22c2.7-9.6,13.6-18.1,24.3-18.9l137.6-10.5
		c10.8-0.8,17.3,6.3,14.6,15.9l-6.2,22C323.6,62.6,312.7,71.1,302,71.9z"/>
	<path class="st16" d="M164.6,21.1H324c4.9,0,8.9,4.6,8.9,10.4v34.6c0,5.7-4,10.4-8.9,10.4H164.6c-4.9,0-8.9-4.6-8.9-10.4V31.4
		C155.7,25.7,159.7,21.1,164.6,21.1z"/>
	<g>
		<ellipse class="st3" cx="80.4" cy="47.3" rx="61.1" ry="41.5"/>
		<g>
			<defs>
				<ellipse id="SVGID_00000039123271641693242640000014119829252325960619_" cx="80.4" cy="47.3" rx="61.1" ry="41.5"/>
			</defs>
			<clipPath id="SVGID_00000139288284610813414510000008719960385554435519_">
				<use xlink:href="#SVGID_00000039123271641693242640000014119829252325960619_"  style="overflow:visible;"/>
			</clipPath>
			<g style="clip-path:url(#SVGID_00000139288284610813414510000008719960385554435519_);">
				<g>
					<g>
						<path class="st2" d="M32.9,15.4l-13.6,58l9.4,5.1l7.2-30.6c0,0,7.4-11.6,11.1-5l-8.7,39.2l10-0.5l7.8-32
							c1.4-3.3,0.8-7.2-1.6-9.8c-2.1-1.8-4.8-2.6-7.5-2.3c-6.1,0.5-9.9,5.7-10.4,6.3l7.8-33.9H34.1L32.9,15.4z"/>
					</g>
				</g>
				<path class="st2" d="M76.8,52.9h4.2l-0.4,2.3c1.3-1.6,3.2-2.6,5.3-2.7c1-0.1,2.1,0.2,2.9,0.8c0.7,0.6,1.2,1.5,1.3,2.4
					c0.6-1,1.5-1.8,2.5-2.3c1-0.6,2.2-0.9,3.4-1c1.2-0.1,2.3,0.4,3.1,1.2c0.8,0.9,1.2,2,1.1,3.2c-0.1,1.1-0.2,2.2-0.4,3.3l-2.2,11.4
					h-4.6l2.1-11.4c0.3-1.4,0.4-2.2,0.4-2.4c0-0.4-0.1-0.9-0.4-1.2c-0.3-0.3-0.8-0.5-1.3-0.4c-1.3,0.1-2.4,0.9-3,2
					c-0.9,1.6-1.4,3.3-1.7,5l-1.6,8.5h-4.5l2.1-11.3c0.2-0.9,0.3-1.7,0.4-2.6c0-0.4-0.2-0.9-0.5-1.2C85,56.2,84.5,56,84.1,56
					c-0.5,0-1.1,0.2-1.5,0.5c-0.5,0.3-1,0.8-1.4,1.3c-0.5,0.7-0.8,1.4-1,2.2c-0.1,0.4-0.3,1.4-0.6,2.9l-1.6,8.6h-4.6L76.8,52.9z"/>
				<path class="st2" d="M118.1,63.8h-11.4v0.5c-0.1,1.1,0.3,2.2,1,3c0.6,0.7,1.4,1.1,2.3,1.1c1.6-0.1,3-1.1,3.5-2.6l4.1,0.7
					c-0.6,1.6-1.7,3-3.1,4.1c-1.3,0.9-2.9,1.4-4.5,1.4c-2.1,0.1-4.1-0.8-5.5-2.4c-1.5-1.8-2.2-4-2.1-6.3c0-2.4,0.6-4.8,1.9-6.8
					c1.6-2.6,4.4-4.1,7.5-4c1.9-0.1,3.7,0.7,4.9,2.2c1.3,1.7,2,3.8,1.8,5.9C118.4,61.7,118.3,62.7,118.1,63.8z M114.2,60.7v-0.5
					c0.1-1.1-0.2-2.2-0.8-3.1c-0.5-0.7-1.4-1.1-2.2-1c-1,0-1.9,0.4-2.5,1.2c-0.8,1-1.4,2.2-1.5,3.5L114.2,60.7z"/>
				<path class="st2" d="M122.7,52.9h4.3l-0.4,2.4c0.9-0.9,1.9-1.6,3-2.2c0.9-0.4,2-0.7,3-0.7c1.2-0.1,2.4,0.4,3.3,1.3
					c0.8,1,1.3,2.2,1.2,3.5c-0.1,1.3-0.3,2.5-0.6,3.8l-2,10.6h-4.5l2-10.6c0.2-0.9,0.3-1.9,0.4-2.8c0-0.6-0.2-1.1-0.5-1.5
					c-0.4-0.4-0.9-0.6-1.4-0.6c-0.8,0.1-1.6,0.4-2.2,0.9c-0.8,0.6-1.5,1.5-1.9,2.5c-0.5,1.4-0.9,2.9-1.1,4.4l-1.4,7.6h-4.6
					L122.7,52.9z"/>
				<g>
					<g>
						<path class="st2" d="M61.4,69c-1.4-0.8-2.2-2.2-2.3-3.8c0-0.2,0-0.4,0-0.5h11.7c0.2-1.3,0.3-2.6,0.3-3.9
							c0.2-2.5-0.5-5-1.9-7.1c-1.1-1.7-3-2.6-5.1-2.6c-3.3,0-6.3,1.9-7.6,4.9c-1.3,2.5-2,5.3-2,8.2c-0.1,2.7,0.6,5.4,2.2,7.6
							c1.3,1.8,3.4,2.9,5.7,2.9c1.7,0,3.3-0.6,4.6-1.6c1.4-1.5,2.7-3.1,3.7-4.9c-0.4,0.3-0.9,0.5-1.4,0.7
							C68.5,69.1,64.3,70.8,61.4,69z M61.1,56.8c0.6-0.9,1.6-1.4,2.6-1.4c0.9,0,1.8,0.5,2.3,1.3c0.6,1.1,0.9,2.4,0.8,3.7V61h-7.3
							C59.7,59.5,60.2,58,61.1,56.8L61.1,56.8z"/>
					</g>
				</g>
			</g>
		</g>
	</g>
	<g>
		<path class="st18" d="M210.2,43v-6.6c0,0-0.1-2.9,3.3-2.1l5.5,2.1c0,0,1.5,1,0.7,2.3C219,40,210.2,43,210.2,43z"/>
		<path class="st2" d="M219,36.4c0,0,2.6,2.2-1.5,3.5c-3.4,1.1-12.5,4.5-12.5,4.5s-2.8,1.1-2.7,5.5v11.5c0,0-0.5,3.8,3.6,3l12.5-4.8
			c0,0,2.9-1,2.9-4V39.5C221.2,39.5,221.6,37.5,219,36.4z"/>
	</g>
	<g>
		<path class="st2" d="M182.7,38.4l13-4.9c0,0,3.8-1.3,3.9,2.7v13c0,0,0.4,3-3.4,4.2l-4.4,1.6l-6.4-4.6l-2.1-6.8l-2.1-1.6
			C181.2,41.9,181.5,40.3,182.7,38.4z"/>
		<path class="st18" d="M183.2,38.2c0,0-2.5,2.1,0.2,3.2l5.4,2.3c0,0,3,1.3,2.9,4.5v13c0,0,0.2,3.4-3.5,2.3l-4.7-1.6
			c0,0-3-1.1-3-4.8V42.6C180.6,42.6,180.1,39.4,183.2,38.2z"/>
	</g>
	<path class="st2" d="M245.9,30.9h-10.8c-3.3,0-3,3-3,3v32.7h4.3c4.3,0,4.3-3.4,4.3-3.4v-5.7h5.8c0,0,11.2-0.4,10.9-13.1
		C257.1,31.2,245.9,30.9,245.9,30.9z M240.6,49.9v-8.8c0,0-0.4-2.5,2.5-2.5c2.1,0,5.6,0.5,5.8,5.3C249.1,48.6,246.6,50.3,240.6,49.9
		z"/>
	<path class="st2" d="M296.5,30.9h-10.8c-3.3,0-3,3-3,3v32.7h4.3c4.3,0,4.3-3.4,4.3-3.4v-5.7h5.8c0,0,11.2-0.4,10.9-13.1
		C307.8,31.2,296.5,30.9,296.5,30.9z M291.2,49.9v-8.8c0,0-0.4-2.5,2.5-2.5c2.1,0,5.6,0.5,5.8,5.3C299.7,48.6,297.2,50.3,291.2,49.9
		z"/>
	<path class="st2" d="M270,42.7c-8.5-0.3-10.4,7.4-10.5,11.5c-0.1,4.1-0.3,10.9,8.3,12.4c0,0,5.9,0.9,9.2-2c0.2-0.2,0.3-0.6,0.2-0.9
		l-1.4-3.6c-0.2-0.4-0.6-0.6-1.1-0.4c-2,1-7.6,2.9-8.8-2.9h9.7c0,0,2.9,0.2,3-2.7C278.9,51.1,278.5,43,270,42.7z M272.8,52.3H266
		c0,0,0-4,3.7-3.8C273.2,48.7,272.8,52.3,272.8,52.3z"/>
</g>
</svg>
