<?xml version="1.0" encoding="utf-8"?>
<!-- Generator: Adobe Illustrator 26.2.1, SVG Export Plug-In . SVG Version: 6.00 Build 0)  -->
<svg version="1.1" id="Layer_1" xmlns="http://www.w3.org/2000/svg" xmlns:xlink="http://www.w3.org/1999/xlink" x="0px" y="0px"
	 viewBox="0 0 735 202" style="enable-background:new 0 0 735 202;" xml:space="preserve">
<style type="text/css">
	.st0{fill:#F4961B;}
	.st1{fill:#333333;}
	.st2{fill:#F9C284;}
	.st3{fill:#EBACCD;}
	.st4{fill:#B3BBE0;}
</style>
<g>
	<g>
		<path class="st0" d="M90.7,92.6c0.3,1.1,0.3,2.1-0.1,2.8c-0.4,0.7-1.3,1.1-2.5,1.1H68.8c-1.9,0-3.2-0.9-3.7-2.8l-4.3-14.3H29.5
			l-4.3,14.3c-0.5,1.8-1.8,2.8-3.7,2.8H2.1c-1.2,0-2.1-0.3-2.5-1.1c-0.4-0.7-0.5-1.6-0.1-2.8L30,4.4c0.7-1.8,1.9-2.6,3.7-2.6h22.9
			c1.8,0,3,0.9,3.7,2.6L90.7,92.6z M35.5,59.3h19.2l-8.9-29.2h-1.3L35.5,59.3z"/>
		<path class="st0" d="M98.1,96.4c-2.2,0-3.3-1.1-3.3-3.3v-88c0-2.2,1.1-3.3,3.3-3.3h16.6c1.8,0,3.1,0.7,3.9,2.1l34.7,49.6h1.1
			l-0.1-48.4c0-2.2,1.1-3.3,3.3-3.3h19.2c2.2,0,3.3,1.1,3.3,3.3v88c0,2.2-1.1,3.3-3.3,3.3h-16.3c-1.7,0-3-0.7-3.9-2l-35.1-48.5h-1.1
			l0.3,47.2c0,2.2-1.1,3.3-3.3,3.3H98.1z"/>
		<path class="st0" d="M187.5,96.4c-2.2,0-3.3-1.1-3.3-3.3V5c0-2.2,1.1-3.3,3.3-3.3h18.7c2.2,0,3.3,1.1,3.3,3.3l0.1,88.1
			c0,2.2-1.1,3.3-3.3,3.3H187.5z"/>
		<path class="st0" d="M217,96.4c-2.2,0-3.3-1.1-3.3-3.3v-88c0-2.2,1.1-3.3,3.3-3.3h16.6c1.8,0,3.1,0.7,3.9,2.1l34.7,49.6h1.1
			l-0.1-48.4c0-2.2,1.1-3.3,3.3-3.3h19.2c2.2,0,3.3,1.1,3.3,3.3v88c0,2.2-1.1,3.3-3.3,3.3h-16.3c-1.7,0-3-0.7-3.9-2l-35.1-48.5h-1.1
			l0.3,47.2c0,2.2-1.1,3.3-3.3,3.3H217z"/>
		<path class="st0" d="M306.4,96.4c-2.2,0-3.3-1.1-3.3-3.3V5c0-2.2,1.1-3.3,3.3-3.3h31.8c15.9,0,28,4.1,36.4,12.4
			c8.4,8.3,12.6,19.9,12.6,34.9c0,15-4.2,26.6-12.6,34.9c-8.4,8.3-20.6,12.4-36.4,12.4H306.4z M328.5,74.3h10.4
			c14.8,0,22.2-8.4,22.2-25.2c0-16.8-7.4-25.2-22.2-25.2h-10.4V74.3z"/>
		<path class="st0" d="M467.7,92.6c0.3,1.1,0.3,2.1-0.1,2.8c-0.4,0.7-1.3,1.1-2.5,1.1h-19.3c-1.9,0-3.2-0.9-3.7-2.8l-4.3-14.3h-31.3
			l-4.3,14.3c-0.5,1.8-1.8,2.8-3.7,2.8h-19.3c-1.2,0-2.1-0.3-2.5-1.1c-0.4-0.7-0.5-1.6-0.1-2.8L407,4.4c0.7-1.8,1.9-2.6,3.7-2.6
			h22.9c1.8,0,3,0.9,3.7,2.6L467.7,92.6z M412.5,59.3h19.2l-8.9-29.2h-1.3L412.5,59.3z"/>
	</g>
	<path class="st0" d="M457.8,13.4c0,0,63-24.9,150.4-4.4c0,0,17.8,1.6,74.8,27.5l14.7-23.5l37.4,81l-88.9,2.7l15.5-25.3
		c0,0-45.2-30.9-105.4-46.1C556.1,25.2,512.1,13.2,457.8,13.4z"/>
	<path class="st1" d="M276.4,189.1c0,0-63,24.9-150.4,4.4c0,0-17.8-1.6-74.8-27.5l-14.7,23.5l-37.4-81l88.9-2.7l-15.5,25.3
		c0,0,45.2,30.9,105.4,46.1C178.1,177.3,222.1,189.3,276.4,189.1z"/>
	<path class="st2" d="M366.4,137.2h55.6c2.3,0,4.1,1.9,4.1,4.1v0c0,2.3-1.9,4.1-4.1,4.1h-55.6c-2.3,0-4.1-1.9-4.1-4.1v0
		C362.2,139,364.1,137.2,366.4,137.2z"/>
	<path class="st3" d="M366.4,165.2h55.6c2.3,0,4.1,1.9,4.1,4.1v0c0,2.3-1.9,4.1-4.1,4.1h-55.6c-2.3,0-4.1-1.9-4.1-4.1v0
		C362.2,167.1,364.1,165.2,366.4,165.2z"/>
	<path class="st4" d="M366.4,192.7h55.6c2.3,0,4.1,1.9,4.1,4.1v0c0,2.3-1.9,4.1-4.1,4.1h-55.6c-2.3,0-4.1-1.9-4.1-4.1v0
		C362.2,194.6,364.1,192.7,366.4,192.7z"/>
	<path class="st1" d="M342.3,136.8L342.3,136.8c-1.6,0-3,0.9-3.7,2.3c-0.1,0.2-0.3,0.4-0.4,0.5L315,183.4l-23-43.3
		c-0.4-2.2-2.6-3.7-4.9-3.3c-2,0.4-3.4,2.1-3.3,4.1v56.1c0,2.3,1.9,4.1,4.1,4.1c2.3,0,4.1-1.9,4.1-4.1V158l18.6,35.1
		c0.8,1.5,2.5,2.4,4.2,2.1c1.7,0.2,3.4-0.6,4.2-2.2l18.9-35.6v39.6c0,2.3,1.9,4.1,4.1,4.1l0,0c2.3,0,4.1-1.9,4.1-4.1V141
		C346.4,138.7,344.6,136.9,342.3,136.8L342.3,136.8z"/>
	<path class="st1" d="M494.4,165.2h-45v-20.4h45c2.3,0,4.1-1.9,4.1-4.1c0-2.3-1.9-4.1-4.1-4.1h-48.8c-1,0-2,0.4-2.8,1.1
		c-1.1,0.8-1.7,2-1.7,3.4v56.1c0,2.3,1.9,4.1,4.1,4.1c2.3,0,4.1-1.9,4.1-4.1v-23.6h45c2.3,0,4.1-1.9,4.1-4.1l0,0
		C498.6,167.1,496.7,165.3,494.4,165.2C494.4,165.2,494.4,165.2,494.4,165.2z"/>
	<path class="st1" d="M517.8,136.5H573c2.3,0,4.1,1.9,4.1,4.1v0c0,2.3-1.9,4.1-4.1,4.1h-55.2c-2.3,0-4.1-1.9-4.1-4.1v0
		C513.6,138.4,515.5,136.5,517.8,136.5z"/>
	<path class="st1" d="M517.8,165.2H573c2.3,0,4.1,1.9,4.1,4.1v0c0,2.3-1.9,4.1-4.1,4.1h-55.2c-2.3,0-4.1-1.9-4.1-4.1v0
		C513.6,167.1,515.5,165.2,517.8,165.2z"/>
	<path class="st1" d="M517.8,192.7H573c2.3,0,4.1,1.9,4.1,4.1v0c0,2.3-1.9,4.1-4.1,4.1h-55.2c-2.3,0-4.1-1.9-4.1-4.1v0
		C513.6,194.6,515.5,192.7,517.8,192.7z"/>
	<path class="st1" d="M675.1,136.5h55.2c2.3,0,4.1,1.9,4.1,4.1v0c0,2.3-1.9,4.1-4.1,4.1h-55.2c-2.3,0-4.1-1.9-4.1-4.1v0
		C670.9,138.4,672.8,136.5,675.1,136.5z"/>
	<path class="st1" d="M675.1,165.2h55.2c2.3,0,4.1,1.9,4.1,4.1v0c0,2.3-1.9,4.1-4.1,4.1h-55.2c-2.3,0-4.1-1.9-4.1-4.1v0
		C670.9,167.1,672.8,165.2,675.1,165.2z"/>
	<path class="st1" d="M675.1,192.7h55.2c2.3,0,4.1,1.9,4.1,4.1v0c0,2.3-1.9,4.1-4.1,4.1h-55.2c-2.3,0-4.1-1.9-4.1-4.1v0
		C670.9,194.6,672.8,192.7,675.1,192.7z"/>
	<path class="st1" d="M651.7,136.5h-55.2c-2.3,0-4.1,1.9-4.1,4.1s1.9,4.1,4.1,4.1h23.5V197c0,2.3,1.9,4.1,4.1,4.1l0,0
		c2.3,0,4.1-1.9,4.1-4.1v-52.2h23.5c2.3,0,4.1-1.9,4.1-4.1C655.8,138.4,653.9,136.6,651.7,136.5L651.7,136.5z"/>
</g>
</svg>
