<?xml version="1.0" encoding="utf-8"?>
<!-- Generator: Adobe Illustrator 22.1.0, SVG Export Plug-In . SVG Version: 6.00 Build 0)  -->
<svg version="1.1" id="Layer_1" xmlns="http://www.w3.org/2000/svg" xmlns:xlink="http://www.w3.org/1999/xlink" x="0px" y="0px"
	 viewBox="0 0 48 48" style="enable-background:new 0 0 48 48;" xml:space="preserve">
<style type="text/css">
	.st0{fill:none;stroke:#000000;stroke-width:2;stroke-linecap:round;stroke-linejoin:round;stroke-miterlimit:10;}
</style>
<path class="st0" d="M37.9,3.6H8.1c-2.2,0-4,1.8-4,4l0,0c0,2.2,1.8,4,4,4H26"/>
<path d="M42.9,9.6H7.1l-4-2v31.8c0,3.3,2.7,6,6,6h33.8c2.2,0,4-1.8,4-4V13.6C46.9,11.4,45.1,9.6,42.9,9.6z M38.9,31.5
	c-2.2,0-4-1.8-4-4s1.8-4,4-4c2.2,0,4,1.8,4,4S41.1,31.5,38.9,31.5z"/>
</svg>
