<?xml version="1.0" encoding="utf-8"?>
<!-- Generator: Adobe Illustrator 22.1.0, SVG Export Plug-In . SVG Version: 6.00 Build 0)  -->
<svg version="1.1" id="Layer_1" xmlns="http://www.w3.org/2000/svg" xmlns:xlink="http://www.w3.org/1999/xlink" x="0px" y="0px"
	 viewBox="0 0 128 128" style="enable-background:new 0 0 128 128;" xml:space="preserve">
<g id="Layer_x0020_1">
	<path d="M26.2,93.7V19.1c0-3.3,2.6-5.9,5.9-5.9h38.4c0.8,0,1.6,0.3,2.1,0.9l13.2,13.3c0.6,0.6,0.9,1.3,0.9,2.1v64.2
		c0,3.3-2.6,5.9-5.9,5.9H32.1C28.8,99.6,26.2,96.9,26.2,93.7z M96.9,24.5c-0.2,0-1.7,0-2.3,0l-0.2,1.9l0.2,1.9c0.5,0,1.6,0,1.9,0
		c3,0.3,5.3,3,5.3,6.1v74.5c0,3.3-2.6,5.9-5.9,5.9H47.1c-3,0-5.5-2.2-5.9-5.2c0-0.4,0-2.2,0-2.4c0-1-0.8-1.9-1.9-1.9
		c-1.1,0-1.9,0.8-1.9,1.9c0,0.3,0,2.5,0,2.8c0.5,4.9,4.7,8.6,9.6,8.6h48.8c5.3,0,9.7-4.3,9.7-9.7V34.3
		C105.6,29.3,101.8,25,96.9,24.5z M84.4,29.3c0-1-0.8-1.9-1.9-1.9h-9.8V17.1c0-1-0.8-1.9-1.9-1.9s-1.9,0.8-1.9,1.9v12.2
		c0,1,0.8,1.9,1.9,1.9h11.7C83.5,31.2,84.4,30.4,84.4,29.3z M90.5,93.7V29.5c0-1.8-0.7-3.5-2-4.8L75.3,11.5c-1.3-1.3-3-2-4.8-2H32.1
		c-5.3,0-9.7,4.3-9.7,9.7v74.5c0,5.3,4.3,9.7,9.7,9.7h48.8C86.2,103.3,90.5,99,90.5,93.7z"/>
</g>
</svg>
