<svg id="katman_1" data-name="katman 1" xmlns="http://www.w3.org/2000/svg" xmlns:xlink="http://www.w3.org/1999/xlink" viewBox="0 0 360.48 94.66"><defs><style>.cls-1{fill:none;}.cls-2{fill:#ff9700;}.cls-3{clip-path:url(#clip-path);}.cls-4{fill:#fff;}.cls-5{fill:#e2e2e2;}.cls-6{fill:url(#Adsız_degrade_2);}</style><clipPath id="clip-path" transform="translate(-239.89 -249.9)"><ellipse class="cls-1" cx="277.4" cy="296.42" rx="37.51" ry="37.47"/></clipPath><linearGradient id="Adsız_degrade_2" x1="152.92" y1="60.96" x2="424.75" y2="60.96" gradientUnits="userSpaceOnUse"><stop offset="0" stop-color="#e14955"/><stop offset="1" stop-color="#93079c"/></linearGradient></defs><ellipse class="cls-2" cx="37.51" cy="46.52" rx="37.51" ry="37.47"/><g class="cls-3"><path class="cls-4" d="M265.37,256.34l-16,68.27,11.06,6,8.42-36s8.76-13.68,13.09-5.85l-10.2,46.13,11.73-.62,9.18-37.69A10.82,10.82,0,0,0,290.77,285a11.32,11.32,0,0,0-8.83-2.72c-7.23.56-11.71,6.76-12.23,7.46l9.17-39.87h-12Z" transform="translate(-239.89 -249.9)"/></g><path class="cls-2" d="M317.12,300.53h5l-.45,2.67a8.42,8.42,0,0,1,6.21-3.18,5.23,5.23,0,0,1,3.46,1,4.65,4.65,0,0,1,1.53,2.86,8.14,8.14,0,0,1,3-2.76,7.77,7.77,0,0,1,4-1.12,4.9,4.9,0,0,1,3.7,1.41,5.13,5.13,0,0,1,1.33,3.71,25.94,25.94,0,0,1-.52,3.93l-2.54,13.43h-5.37L339,309.08c.32-1.68.48-2.63.48-2.86a2.08,2.08,0,0,0-.49-1.43,1.92,1.92,0,0,0-1.53-.52,4.37,4.37,0,0,0-3.5,2.34,17,17,0,0,0-1.95,5.93l-1.88,10h-5.35l2.51-13.27a21.06,21.06,0,0,0,.43-3.06,2,2,0,0,0-.54-1.42,1.94,1.94,0,0,0-1.53-.57,3.4,3.4,0,0,0-1.8.58,5.56,5.56,0,0,0-1.64,1.53,9.75,9.75,0,0,0-1.21,2.62c-.15.48-.39,1.62-.73,3.37l-1.9,10.1H313Z" transform="translate(-239.89 -249.9)"/><path class="cls-2" d="M365.76,313.35H352.29v.54a5.2,5.2,0,0,0,1.13,3.53,3.44,3.44,0,0,0,2.75,1.34,4.6,4.6,0,0,0,4.16-3.05l4.8.88a10.82,10.82,0,0,1-3.67,4.8A9.22,9.22,0,0,1,356.2,323a8.36,8.36,0,0,1-6.5-2.8,10.68,10.68,0,0,1-2.5-7.42,14.31,14.31,0,0,1,2.26-8,9.87,9.87,0,0,1,8.79-4.76,7.17,7.17,0,0,1,5.72,2.54,10.35,10.35,0,0,1,2.16,7A18.19,18.19,0,0,1,365.76,313.35Zm-4.59-3.61v-.6a5.77,5.77,0,0,0-1-3.65,3.22,3.22,0,0,0-2.64-1.22,4,4,0,0,0-3,1.39,7.73,7.73,0,0,0-1.79,4.1Z" transform="translate(-239.89 -249.9)"/><path class="cls-2" d="M371.2,300.53h5.08l-.52,2.86a14.67,14.67,0,0,1,3.56-2.6,8.09,8.09,0,0,1,3.55-.77,4.91,4.91,0,0,1,3.86,1.52,5.85,5.85,0,0,1,1.4,4.12,26.36,26.36,0,0,1-.67,4.42l-2.34,12.43h-5.31L382.17,310a28.81,28.81,0,0,0,.52-3.33,2.59,2.59,0,0,0-.6-1.79,2.23,2.23,0,0,0-1.7-.66,4.53,4.53,0,0,0-2.61,1.1,7.52,7.52,0,0,0-2.26,2.89,26.28,26.28,0,0,0-1.35,5.23l-1.7,9H367Z" transform="translate(-239.89 -249.9)"/><g class="cls-3"><path class="cls-4" d="M299,319.53a5.74,5.74,0,0,1-2.75-4.5,3.42,3.42,0,0,1,0-.64H310a25.17,25.17,0,0,0,.38-4.59,13.9,13.9,0,0,0-2.22-8.41,7,7,0,0,0-5.95-3.06,9.9,9.9,0,0,0-9,5.74,19.83,19.83,0,0,0-2.32,9.66,14.36,14.36,0,0,0,2.57,8.93,8,8,0,0,0,6.68,3.38,8.43,8.43,0,0,0,5.4-1.92,30.47,30.47,0,0,0,4.4-5.77,10.75,10.75,0,0,1-1.62.83C307.39,319.54,302.43,321.62,299,319.53Zm-.35-14.45a3.87,3.87,0,0,1,3.06-1.67,3.14,3.14,0,0,1,2.72,1.53,7.7,7.7,0,0,1,1,4.4v.72h-8.64A10.21,10.21,0,0,1,298.63,305.08Z" transform="translate(-239.89 -249.9)"/></g><path class="cls-5" d="M564,334,403.37,344.5c-12.56.82-20.19-6.31-17-15.92l7.22-22C396.7,297,409.44,288.52,422,287.7l160.62-10.47c12.57-.82,20.19,6.31,17,15.92l-7.21,22C589.29,324.75,576.56,333.21,564,334Z" transform="translate(-239.89 -249.9)"/><rect class="cls-6" x="153.35" y="33.27" width="206.9" height="55.38" rx="10.37"/><path class="cls-4" d="M581.29,307.75a16.36,16.36,0,0,1-3.3,1.1l-2,.42a5.17,5.17,0,0,0-2.2,1.1,3.48,3.48,0,0,0-.59,1.86,2.73,2.73,0,0,0,.76,2,3.22,3.22,0,0,0,2.2.68,4.69,4.69,0,0,0,5.08-5.08v-2.11Zm1.35,10.4a10.58,10.58,0,0,1-3.76,1.14,33.88,33.88,0,0,1-3.52.21,8.88,8.88,0,0,1-5.33-1.65c-1.52-1.1-2.28-2.91-2.28-5.46q0-3.54,2.07-5.07a12,12,0,0,1,5.29-2,5.16,5.16,0,0,0,1-.12,13.38,13.38,0,0,1,1.36-.22c2.48-.33,3.72-1.07,3.72-2.2a1.6,1.6,0,0,0-1.31-1.64,8.6,8.6,0,0,0-2.41-.38,6.33,6.33,0,0,0-2.12.33,2.3,2.3,0,0,0-1.35,1.28h-5.67a6.46,6.46,0,0,1,2.37-4.32,9.73,9.73,0,0,1,6.51-1.95q4.74,0,7.11,1.61a5.43,5.43,0,0,1,2.46,4.74v7.69a9.72,9.72,0,0,1-1.23,5.29A7.41,7.41,0,0,1,582.64,318.15Zm-27.67.92v-10.9a13.88,13.88,0,0,1,1-5.54,9.18,9.18,0,0,1,2.67-3.59,10.36,10.36,0,0,1,3.76-1.86,16.75,16.75,0,0,1,4.45-.6h.84v6h-1.94a5,5,0,0,0-3.64,1.18,5.08,5.08,0,0,0-1.19,3.72v11.59Zm-6.35-11.32a16.36,16.36,0,0,1-3.3,1.1l-1.94.42a5.05,5.05,0,0,0-2.2,1.1,3.39,3.39,0,0,0-.59,1.86,2.73,2.73,0,0,0,.76,2,3.22,3.22,0,0,0,2.2.68,4.69,4.69,0,0,0,5.08-5.08v-2.11Zm1.35,10.4a10.58,10.58,0,0,1-3.76,1.14,34,34,0,0,1-3.51.21,8.84,8.84,0,0,1-5.33-1.65c-1.53-1.1-2.29-2.91-2.29-5.46q0-3.54,2.07-5.07a12.09,12.09,0,0,1,5.29-2,5.25,5.25,0,0,0,1-.12,12.71,12.71,0,0,1,1.35-.22c2.48-.33,3.73-1.07,3.73-2.2a1.6,1.6,0,0,0-1.32-1.64,7.88,7.88,0,0,0-2.41-.38,6.27,6.27,0,0,0-2.11.33,2.28,2.28,0,0,0-1.35,1.27h-5.67a6.46,6.46,0,0,1,2.37-4.31,9.73,9.73,0,0,1,6.51-1.95c3.15,0,5.53.54,7.11,1.61a5.44,5.44,0,0,1,2.45,4.73v7.7a9.72,9.72,0,0,1-1.23,5.29A7.41,7.41,0,0,1,550,318.15Zm-21.24-10.24a8.71,8.71,0,0,0-1.26-5.07,4.21,4.21,0,0,0-3.64-1.77,4.13,4.13,0,0,0-3.56,1.77,8.67,8.67,0,0,0-1.18,5.08,7.66,7.66,0,0,0,1.27,4.82,4.21,4.21,0,0,0,3.64,1.77,4,4,0,0,0,3.47-1.78A8.16,8.16,0,0,0,528.73,307.91Zm-9.64,16.58a2.89,2.89,0,0,1-2.88,2.87h-2.88V306.31q0-5.93,3.47-8.08a14.14,14.14,0,0,1,7.54-2.15,12.2,12.2,0,0,1,4.27.8A8.06,8.06,0,0,1,532,299.2a13.49,13.49,0,0,1,2.53,8.46,13.79,13.79,0,0,1-2.53,8.63,8,8,0,0,1-6.52,3.21,8.63,8.63,0,0,1-3.73-.76,6.36,6.36,0,0,1-2.7-2.62ZM507,307.75a16.71,16.71,0,0,1-3.31,1.1l-1.94.42a5.05,5.05,0,0,0-2.2,1.09,3.45,3.45,0,0,0-.59,1.87,2.75,2.75,0,0,0,.76,2,3.22,3.22,0,0,0,2.2.67,4.67,4.67,0,0,0,5.08-5.07v-2.11Zm1.35,10.4a10.58,10.58,0,0,1-3.76,1.14,34,34,0,0,1-3.51.21,8.86,8.86,0,0,1-5.33-1.65c-1.52-1.1-2.29-2.92-2.29-5.46q0-3.54,2.08-5.07a12,12,0,0,1,5.29-2,5.25,5.25,0,0,0,1-.12,12.65,12.65,0,0,1,1.35-.22c2.48-.33,3.73-1.07,3.73-2.2a1.6,1.6,0,0,0-1.32-1.64,8.93,8.93,0,0,0-2.41-.39,6.27,6.27,0,0,0-2.11.34,2.31,2.31,0,0,0-1.35,1.27H494a6.54,6.54,0,0,1,2.37-4.31,9.76,9.76,0,0,1,6.52-1.95q4.74,0,7.11,1.61a5.44,5.44,0,0,1,2.45,4.74v7.69a9.72,9.72,0,0,1-1.23,5.29A7.47,7.47,0,0,1,508.34,318.15Zm-30.89,6.34a2.77,2.77,0,0,1-.84,2,2.81,2.81,0,0,1-2,.84H471.7V306.31c0-3.95,1.15-6.64,3.47-8.08a14,14,0,0,1,7.52-2.15,12.21,12.21,0,0,1,4.28.8,8.06,8.06,0,0,1,3.43,2.32,13.49,13.49,0,0,1,2.54,8.46,13.79,13.79,0,0,1-2.54,8.63,8,8,0,0,1-6.52,3.21,8.63,8.63,0,0,1-3.73-.76,6.44,6.44,0,0,1-2.71-2.62v8.37Zm9.65-16.58a8.71,8.71,0,0,0-1.27-5.07,4.2,4.2,0,0,0-3.63-1.78,4.14,4.14,0,0,0-3.56,1.78,8.66,8.66,0,0,0-1.19,5.08,7.73,7.73,0,0,0,1.27,4.82,4.21,4.21,0,0,0,3.64,1.77,4,4,0,0,0,3.47-1.77A8.14,8.14,0,0,0,487.1,307.91Z" transform="translate(-239.89 -249.9)"/><path class="cls-4" d="M422.53,299.2a1,1,0,0,1,1-.72h.21a.8.8,0,0,1,.69.26.71.71,0,0,1,0,.73l-6.43,20a10.45,10.45,0,0,1-2.07,4,4.49,4.49,0,0,1-6.14,0,10.57,10.57,0,0,1-2.06-4l-6.43-20a.8.8,0,0,1,.05-.72.7.7,0,0,1,.63-.27h.25a1,1,0,0,1,1,.72l6.43,20.05a8.93,8.93,0,0,0,1.37,2.89,2.33,2.33,0,0,0,1.83.83,2.37,2.37,0,0,0,1.85-.83,8.55,8.55,0,0,0,1.36-2.89Z" transform="translate(-239.89 -249.9)"/><path class="cls-4" d="M431.79,324.42a.78.78,0,0,1-.88-.88V299.35a.77.77,0,0,1,.88-.87H432a.77.77,0,0,1,.88.87v24.19a.78.78,0,0,1-.88.88Z" transform="translate(-239.89 -249.9)"/><path class="cls-4" d="M443.21,324.42a.78.78,0,0,1-.88-.88V303.76a5.51,5.51,0,0,1,1.27-4c.84-.84,2.35-1.25,4.5-1.25h1.5a21.79,21.79,0,0,1,4.54.4,8.59,8.59,0,0,1,3.22,1.34,5.5,5.5,0,0,1,2,2.59,13.43,13.43,0,0,1,0,8.13,5.58,5.58,0,0,1-2,2.6,8.61,8.61,0,0,1-3.22,1.36,22.49,22.49,0,0,1-4.54.4h-5.32v8.24a.78.78,0,0,1-.88.88Zm1.07-11h5.48q4.41,0,6.33-1.44t1.93-5.12q0-3.7-1.92-5.12t-6.34-1.41H448.1a6.76,6.76,0,0,0-2,.24,2.34,2.34,0,0,0-1.17.75,3,3,0,0,0-.54,1.12,6.58,6.58,0,0,0-.15,1.53Z" transform="translate(-239.89 -249.9)"/></svg>