<?xml version="1.0" encoding="UTF-8"?>
<svg viewBox="0 0 95 12" version="1.1" xmlns="http://www.w3.org/2000/svg" xmlns:xlink="http://www.w3.org/1999/xlink">
    <g stroke="none" stroke-width="1" fill="none" fill-rule="evenodd">
        <g transform="translate(-599.000000, -377.000000)">
            <g transform="translate(599.000042, 377.000000)">
                <path d="M5.6986177,0.130213389 C5.41577153,0.455668884 5.1996045,0.707213684 4.98050483,0.956274091 C3.72031514,2.38899253 2.46629945,3.82753377 1.19190957,5.24744206 C0.977286051,5.48656489 0.993878664,5.61451113 1.19599985,5.84128964 C2.59425551,7.4100286 3.97823381,8.99165535 5.36637956,10.5694779 C5.45026873,10.6648941 5.53029915,10.763804 5.61179589,10.8606953 C5.53979166,10.99198 5.42402925,10.9428356 5.33265411,10.9430685 C3.6748591,10.9467951 2.01698692,10.9384103 0.359346261,10.9531369 C0.0623770698,10.9557234 0.000868638066,10.8604624 0.00164038752,10.5791049 C0.0110557309,7.21787633 0.00696545877,3.85649247 0.00997528166,0.495186261 C0.0101296315,0.334787633 -0.0734508346,0.124545867 0.240574019,0.126013256 C2.02470441,0.134638714 3.80883481,0.130213389 5.6986177,0.130213389" id="Fill-1" fill="#46B4E8"></path>
                <path d="M11.9322392,0.166728105 C11.9061289,0.322397439 11.780644,0.403824476 11.690856,0.504719835 C10.514805,1.82632544 9.33251877,3.14244592 8.16059864,4.46752802 C8.00214469,4.64668295 7.84283339,4.72926881 7.59685175,4.72679664 C6.37902441,4.71466757 5.16111912,4.72131152 3.95638585,4.72131152 C3.89153898,4.59561723 3.98265195,4.55660332 4.02762388,4.5062329 C5.23890419,3.14692673 6.45727712,1.79387824 7.65998392,0.427232817 C7.85842158,0.201724735 8.06208128,0.118443573 8.35942601,0.123001632 C9.42339792,0.139379746 10.4877595,0.128100479 11.5520432,0.131654221 C11.6756576,0.132117752 11.8063645,0.095962294 11.9322392,0.166728105" id="Fill-4" fill="#FDC51C"></path>
                <path d="M3.68443925,6.34984627 C5.04250163,6.34984627 6.32157314,6.35139518 7.60056621,6.34752092 C7.73336813,6.34713569 7.81784991,6.40312864 7.89997845,6.49490132 C9.18909051,7.9354613 10.4801636,9.37424005 11.7695894,10.8143354 C11.7839443,10.830444 11.7829245,10.8600281 11.7902981,10.8882182 C11.7112288,10.9854895 11.5991355,10.9445209 11.5031227,10.9447532 C10.3661093,10.9477736 9.22917425,10.9447532 8.09216078,10.9477736 C7.90390054,10.9482383 7.74937025,10.9279476 7.60770441,10.7682554 C6.35914675,9.36107435 5.10054854,7.9626446 3.84555865,6.56119449 C3.80429828,6.5150371 3.77009766,6.46276152 3.68443925,6.34984627" id="Fill-7" fill="#FC487F"></path>
                <path d="M17.3068069,10.9531225 L17.3068069,8.83267122 L18.7865462,6.84951533 L21.3493939,10.9531225 L23.8207112,10.9531225 L20.0832251,5.20197044 L23.5461204,0.0915302717 L21.410414,0.0915302717 L17.3068069,6.1630383 L17.3068069,0.0915302717 L15.1863556,0.0915302717 L15.1863556,10.9531225 L17.3068069,10.9531225 Z M27.451412,10.9531225 L27.451412,6.92579056 L28.9769165,6.92579056 L31.0973678,10.9531225 L33.5534301,10.9531225 L31.1278779,6.57492452 C31.6872295,6.37152392 32.1575934,6.00286032 32.5389696,5.46893374 C32.9203457,4.93500715 33.1110338,4.30192277 33.1110338,3.5696806 C33.1110338,2.56284761 32.7932203,1.73144764 32.1575934,1.07548069 C31.5219666,0.419513745 30.6651415,0.0915302717 29.5871183,0.0915302717 L29.5871183,0.0915302717 L27.787023,0.0915302717 C26.9022303,0.0915302717 26.2716885,0.277133323 25.8953974,0.648339425 C25.5191062,1.01954553 25.3309607,1.61194979 25.3309607,2.4255522 L25.3309607,2.4255522 L25.3309607,10.9531225 L27.451412,10.9531225 Z M29.4498229,5.15620531 L27.451412,5.15620531 L27.451412,2.94422374 C27.451412,2.30351184 27.7666829,1.98315589 28.3972248,1.98315589 L28.3972248,1.98315589 L29.4498229,1.98315589 C29.9176443,1.98315589 30.2913929,2.12553631 30.5710687,2.41029716 C30.8507446,2.695058 30.9905825,3.06880661 30.9905825,3.53154298 C30.9905825,3.99427936 30.8456595,4.38074051 30.5558137,4.69092643 C30.2659678,5.00111235 29.8973042,5.15620531 29.4498229,5.15620531 L29.4498229,5.15620531 Z M37.4282116,10.9531225 L37.4282116,0.0915302717 L35.3077603,0.0915302717 L35.3077603,10.9531225 L37.4282116,10.9531225 Z M42.0810004,10.9531225 L42.0810004,7.47497219 L44.1709416,7.47497219 C45.309985,7.47497219 46.1922351,7.16224376 46.817692,6.53678691 C47.4431488,5.91133005 47.7558772,4.99348482 47.7558772,3.78325123 C47.7558772,2.57301764 47.4406063,1.65771492 46.8100644,1.03734308 C46.1896926,0.406801208 45.309985,0.0915302717 44.1709416,0.0915302717 L44.1709416,0.0915302717 L39.9605491,0.0915302717 L39.9605491,10.9531225 L42.0810004,10.9531225 Z M44.0641563,5.56809153 L42.0810004,5.56809153 L42.0810004,1.98315589 L44.0641563,1.98315589 C45.1116694,1.98315589 45.635426,2.58318767 45.635426,3.78325123 C45.635426,4.42396313 45.5006731,4.88161449 45.2311673,5.15620531 C44.9616615,5.43079612 44.5726578,5.56809153 44.0641563,5.56809153 L44.0641563,5.56809153 Z M53.6900899,10.9531225 L53.6900899,1.98315589 L56.6038035,1.98315589 L56.6038035,0.0915302717 L48.67118,0.0915302717 L48.67118,1.98315589 L51.5696386,1.98315589 L51.5696386,10.9531225 L53.6900899,10.9531225 Z M61.8820492,11.0446528 C63.3973837,11.0446528 64.4982895,10.6327666 65.1847665,9.80899412 C65.8712435,8.98522167 66.214482,7.66311775 66.214482,5.84268235 L66.214482,5.84268235 L66.214482,5.0189099 C66.214482,3.34085492 65.863616,2.08485619 65.1618839,1.25091371 C64.4601518,0.416971238 63.3643311,-3.55271368e-15 61.8744217,-3.55271368e-15 C60.3845122,-3.55271368e-15 59.296319,0.411886223 58.609842,1.23565867 C57.9233649,2.05943111 57.5801264,3.31542984 57.5801264,5.00365485 L57.5801264,5.00365485 L57.5801264,5.79691721 C57.5801264,7.6478627 57.9182799,8.98522167 58.5945869,9.80899412 C59.2708939,10.6327666 60.3667147,11.0446528 61.8820492,11.0446528 Z M61.8896767,9.15302717 C61.4981305,9.15302717 61.1625196,9.08437947 60.8828437,8.94708406 C60.6031679,8.80978865 60.3921398,8.64452566 60.2497593,8.45129509 C59.8836383,7.99364373 59.7005777,7.1088511 59.7005777,5.79691721 L59.7005777,5.79691721 L59.7005777,5.23248053 C59.7005777,4.22564754 59.8175331,3.44764024 60.0514438,2.8984586 C60.3362046,2.22723661 60.9514914,1.89162562 61.8973042,1.89162562 C62.832947,1.89162562 63.4431488,2.22723661 63.7279097,2.8984586 C63.9719904,3.47815033 64.0940308,4.25615764 64.0940308,5.23248053 L64.0940308,5.23248053 L64.0940308,5.79691721 C64.0940308,6.5698395 64.0228405,7.20546639 63.8804601,7.70379787 L63.8593785,7.78134435 C63.7793601,8.06102018 63.669432,8.28942211 63.5295941,8.46655014 C63.3770436,8.65978071 63.163473,8.82250119 62.8888822,8.95471158 C62.6142914,9.08692198 62.2812229,9.15302717 61.8896767,9.15302717 Z M70.1960489,10.9531225 L70.1960489,7.47497219 L72.2859901,7.47497219 C73.4250335,7.47497219 74.3072836,7.16224376 74.9327404,6.53678691 C75.5581973,5.91133005 75.8709257,4.99348482 75.8709257,3.78325123 C75.8709257,2.57301764 75.5556548,1.65771492 74.9251129,1.03734308 C74.3047411,0.406801208 73.4250335,0.0915302717 72.2859901,0.0915302717 L72.2859901,0.0915302717 L68.0755976,0.0915302717 L68.0755976,10.9531225 L70.1960489,10.9531225 Z M72.1792048,5.56809153 L70.1960489,5.56809153 L70.1960489,1.98315589 L72.1792048,1.98315589 C73.2267179,1.98315589 73.7504744,2.58318767 73.7504744,3.78325123 C73.7504744,4.42396313 73.6157215,4.88161449 73.3462157,5.15620531 C73.0767099,5.43079612 72.6877063,5.56809153 72.1792048,5.56809153 L72.1792048,5.56809153 Z M78.8304045,10.9531225 L79.4253513,9.07675195 L83.0713071,9.07675195 L83.6815089,10.9531225 L85.8934905,10.9531225 L82.4153401,1.00683299 C82.2831298,0.640711902 82.1331218,0.396631177 81.9653163,0.274590815 C81.7975108,0.152550453 81.5763127,0.0915302717 81.3017218,0.0915302717 C81.027131,0.0915302717 80.7957628,0.157635468 80.6076173,0.28984586 C80.4194717,0.422056253 80.2491237,0.661051962 80.0965733,1.00683299 L80.0965733,1.00683299 L76.6184229,10.9531225 L78.8304045,10.9531225 Z M82.5831456,7.29191165 L79.9592779,7.29191165 L81.3017218,2.98998888 L82.5831456,7.29191165 Z M91.5378572,10.9531225 L91.5378572,6.49864929 L94.8024369,0.0915302717 L92.4989251,0.0915302717 L90.5005141,4.46972827 L88.4715931,0.0915302717 L86.1680813,0.0915302717 L89.432661,6.49864929 L89.432661,10.9531225 L91.5378572,10.9531225 Z" id="KRIPTOPAY" fill="#0E1D44" fill-rule="nonzero"></path>
            </g>
        </g>
    </g>
</svg>
