<?xml version="1.0" encoding="utf-8"?>
<!-- Generator: Adobe Illustrator 27.9.0, SVG Export Plug-In . SVG Version: 6.00 Build 0)  -->
<svg version="1.1" id="Layer_1" xmlns="http://www.w3.org/2000/svg" xmlns:xlink="http://www.w3.org/1999/xlink" x="0px" y="0px"
	 viewBox="0 0 380 112" style="enable-background:new 0 0 380 112;" xml:space="preserve">
<style type="text/css">
	.st0{fill:#F8971D;}
	.st1{fill:#323232;}
</style>
<g>
	<path class="st0" d="M47.63,47.07c0.18,0.59,0.16,1.06-0.07,1.42c-0.23,0.36-0.66,0.54-1.29,0.54h-9.96c-0.99,0-1.63-0.47-1.9-1.42
		l-2.24-7.38H16.06l-2.24,7.38c-0.27,0.95-0.9,1.42-1.9,1.42H1.97c-0.63,0-1.06-0.18-1.29-0.54c-0.23-0.36-0.25-0.83-0.07-1.42
		L16.33,1.62c0.36-0.9,0.99-1.35,1.9-1.35h11.79c0.9,0,1.53,0.45,1.9,1.35L47.63,47.07z M19.18,29.93h9.89L24.46,14.9h-0.68
		L19.18,29.93z"/>
	<path class="st0" d="M51.42,49.04c-1.13,0-1.69-0.56-1.69-1.69V2.03c0-1.13,0.56-1.69,1.69-1.69h8.53c0.9,0,1.58,0.36,2.03,1.08
		l17.88,25.54h0.54L80.35,2.03c0-1.13,0.56-1.69,1.69-1.69h9.89c1.13,0,1.69,0.57,1.69,1.69v45.32c0,1.13-0.57,1.69-1.69,1.69h-8.4
		c-0.86,0-1.54-0.34-2.03-1.02L63.41,23.03h-0.54l0.14,24.32c0,1.13-0.57,1.69-1.69,1.69H51.42z"/>
	<path class="st0" d="M97.48,49.04c-1.13,0-1.69-0.56-1.69-1.69V1.96c0-1.13,0.56-1.69,1.69-1.69h9.62c1.13,0,1.69,0.57,1.69,1.69
		l0.07,45.38c0,1.13-0.57,1.69-1.69,1.69H97.48z"/>
	<path class="st0" d="M112.66,49.04c-1.13,0-1.69-0.56-1.69-1.69V2.03c0-1.13,0.56-1.69,1.69-1.69h8.53c0.9,0,1.58,0.36,2.03,1.08
		l17.88,25.54h0.54l-0.07-24.93c0-1.13,0.56-1.69,1.69-1.69h9.89c1.13,0,1.69,0.57,1.69,1.69v45.32c0,1.13-0.57,1.69-1.69,1.69h-8.4
		c-0.86,0-1.54-0.34-2.03-1.02l-18.09-24.99h-0.54l0.14,24.32c0,1.13-0.57,1.69-1.69,1.69H112.66z"/>
	<path class="st0" d="M158.72,49.04c-1.13,0-1.69-0.56-1.69-1.69V1.96c0-1.13,0.56-1.69,1.69-1.69h16.39
		c8.17,0,14.43,2.13,18.76,6.4c4.34,4.27,6.5,10.26,6.5,17.98c0,7.72-2.17,13.72-6.5,17.98c-4.33,4.27-10.59,6.4-18.76,6.4H158.72z
		 M170.1,37.66h5.35c7.63,0,11.45-4.34,11.45-13.01c0-8.67-3.82-13.01-11.45-13.01h-5.35V37.66z"/>
	<path class="st0" d="M241.83,47.07c0.18,0.59,0.16,1.06-0.07,1.42c-0.23,0.36-0.66,0.54-1.29,0.54h-9.96
		c-0.99,0-1.63-0.47-1.9-1.42l-2.24-7.38h-16.12l-2.24,7.38c-0.27,0.95-0.9,1.42-1.9,1.42h-9.96c-0.63,0-1.06-0.18-1.29-0.54
		c-0.23-0.36-0.25-0.83-0.07-1.42l15.71-45.45c0.36-0.9,0.99-1.35,1.9-1.35h11.79c0.9,0,1.53,0.45,1.9,1.35L241.83,47.07z
		 M213.38,29.93h9.89l-4.61-15.04h-0.68L213.38,29.93z"/>
</g>
<path class="st0" d="M236.7,6.26c0,0,32.47-12.85,77.46-2.29c0,0,9.17,0.84,38.54,14.15l7.58-12.08l19.24,41.71l-45.82,1.41
	l7.96-13.05c0,0-23.3-15.93-54.3-23.74C287.37,12.36,264.68,6.16,236.7,6.26z"/>
<path class="st1" d="M143.3,96.81c0,0-32.47,12.85-77.46,2.29c0,0-9.17-0.84-38.54-14.15l-7.58,12.08L0.48,55.34l45.82-1.41
	l-7.96,13.05c0,0,23.3,15.93,54.3,23.74C92.63,90.71,115.32,96.91,143.3,96.81z"/>
<g>
	<g>
		<path class="st1" d="M149.18,111.2c-1.04,0-1.55-0.52-1.55-1.55V68.03c0-1.03,0.52-1.55,1.55-1.55h8.88
			c1.03,0,1.55,0.52,1.55,1.55v15.03h4.97l8.63-15.53c0.41-0.7,1.03-1.06,1.86-1.06h10.25c0.62,0,1.03,0.17,1.24,0.5
			c0.21,0.33,0.17,0.79-0.12,1.37l-11.8,20.19l12.24,20.81c0.29,0.58,0.34,1.04,0.16,1.37c-0.19,0.33-0.59,0.5-1.21,0.5h-10.5
			c-0.83,0-1.45-0.35-1.86-1.06l-9.13-15.78h-4.72v15.28c0,1.04-0.52,1.55-1.55,1.55H149.18z"/>
		<path class="st1" d="M193.34,111.2c-1.04,0-1.55-0.52-1.55-1.55V68.09c0-1.03,0.52-1.55,1.55-1.55h15.84
			c12.38,0,18.57,5.13,18.57,15.4c0,3.06-0.71,5.81-2.14,8.23s-3.18,4.15-5.25,5.19l8.26,13.98c0.29,0.58,0.34,1.04,0.16,1.37
			c-0.19,0.33-0.59,0.5-1.21,0.5H217.5c-0.83,0-1.43-0.37-1.8-1.12l-6.83-12.79h-5.09v12.36c0,1.04-0.52,1.55-1.55,1.55H193.34z
			 M203.77,87.41h5.84c1.86,0,3.3-0.46,4.32-1.37c1.01-0.91,1.52-2.24,1.52-3.98c0-1.7-0.55-3-1.65-3.91
			c-1.1-0.91-2.62-1.37-4.57-1.37h-5.47V87.41z"/>
		<path class="st1" d="M236.13,111.2c-1.04,0-1.55-0.52-1.55-1.55V68.03c0-1.03,0.52-1.55,1.55-1.55h8.82
			c1.03,0,1.55,0.52,1.55,1.55l0.06,41.62c0,1.04-0.52,1.55-1.55,1.55H236.13z"/>
		<path class="st1" d="M256.26,111.2c-1.04,0-1.55-0.52-1.55-1.55V68.03c0-1.03,0.52-1.55,1.55-1.55h15.09
			c6.09,0,10.7,1.42,13.85,4.25c3.15,2.84,4.72,6.88,4.72,12.14c0,5.26-1.59,9.3-4.78,12.11c-3.19,2.82-7.79,4.22-13.79,4.22h-4.66
			v10.44c0,1.04-0.52,1.55-1.55,1.55H256.26z M266.69,88.78h4.47c4.43,0,6.65-1.97,6.65-5.9c0-1.86-0.55-3.32-1.65-4.38
			c-1.1-1.06-2.76-1.58-5-1.58h-4.47V88.78z"/>
		<path class="st1" d="M305.51,111.2c-1.04,0-1.55-0.52-1.55-1.55L303.9,77.6h-10.12c-1.04,0-1.55-0.52-1.55-1.55v-8.01
			c0-1.03,0.52-1.55,1.55-1.55h32.42c1.03,0,1.55,0.52,1.55,1.55v8.01c0,1.04-0.52,1.55-1.55,1.55h-10.19l-0.06,32.05
			c0,1.04-0.52,1.55-1.55,1.55H305.51z"/>
		<path class="st1" d="M353.28,112.19c-7.33,0-13.13-2.16-17.39-6.49c-4.26-4.33-6.4-9.93-6.4-16.8c0-6.79,2.14-12.38,6.43-16.77
			c4.29-4.39,10.05-6.58,17.3-6.58c7.21,0,12.95,2.19,17.24,6.58c4.29,4.39,6.43,9.98,6.43,16.77c0,6.87-2.11,12.48-6.33,16.8
			C366.32,110.03,360.56,112.19,353.28,112.19z M353.15,101.45c3.52,0,6.29-1.11,8.32-3.32c2.03-2.21,3.04-5.29,3.04-9.22
			c-0.04-4.02-1.09-7.12-3.14-9.32c-2.05-2.19-4.81-3.29-8.29-3.29c-3.44,0-6.17,1.11-8.2,3.32c-2.03,2.22-3.04,5.31-3.04,9.29
			c0,3.93,1.03,7.01,3.08,9.22C346.97,100.34,349.71,101.45,353.15,101.45z"/>
	</g>
	<g>
		<path class="st1" d="M240.29,65.02c-1.7,0-3.04-0.46-4.03-1.39s-1.49-2.16-1.49-3.7c0-1.47,0.5-2.69,1.51-3.65
			c1.01-0.96,2.34-1.44,4.01-1.44c1.7,0,3.05,0.48,4.06,1.44s1.51,2.18,1.51,3.65c0,1.54-0.5,2.77-1.49,3.7
			C243.38,64.55,242.02,65.02,240.29,65.02z"/>
	</g>
</g>
</svg>
